<?xml version="1.0" encoding="UTF-8" standalone="no"?>
<!-- Created with Inkscape (http://www.inkscape.org/) -->

<svg
   width="115.564mm"
   height="43.679165mm"
   viewBox="0 0 115.564 43.679165"
   version="1.1"
   id="svg22420"
   inkscape:version="1.2.2 (b0a8486541, 2022-12-01)"
   sodipodi:docname="logo.svg"
   xmlns:inkscape="http://www.inkscape.org/namespaces/inkscape"
   xmlns:sodipodi="http://sodipodi.sourceforge.net/DTD/sodipodi-0.dtd"
   xmlns:xlink="http://www.w3.org/1999/xlink"
   xmlns="http://www.w3.org/2000/svg"
   xmlns:svg="http://www.w3.org/2000/svg">
  <sodipodi:namedview
     id="namedview22422"
     pagecolor="#ffffff"
     bordercolor="#666666"
     borderopacity="1.0"
     inkscape:showpageshadow="2"
     inkscape:pageopacity="0.0"
     inkscape:pagecheckerboard="0"
     inkscape:deskcolor="#d1d1d1"
     inkscape:document-units="mm"
     showgrid="false"
     inkscape:zoom="1.2589724"
     inkscape:cx="82.607056"
     inkscape:cy="114.379"
     inkscape:window-width="1920"
     inkscape:window-height="1011"
     inkscape:window-x="0"
     inkscape:window-y="0"
     inkscape:window-maximized="1"
     inkscape:current-layer="layer1" />
  <defs
     id="defs22417">
    <linearGradient
       inkscape:collect="always"
       xlink:href="#linearGradient2330"
       id="linearGradient2332"
       x1="43.120995"
       y1="33.336506"
       x2="63.275318"
       y2="33.336506"
       gradientUnits="userSpaceOnUse"
       gradientTransform="translate(1.6858263,4.2639348)" />
    <linearGradient
       id="linearGradient2330"
       inkscape:swatch="solid">
      <stop
         style="stop-color:#000000;stop-opacity:1;"
         offset="0"
         id="stop2328" />
    </linearGradient>
  </defs>
  <g
     inkscape:label="Calque 1"
     inkscape:groupmode="layer"
     id="layer1"
     transform="translate(-25.675184,-85.660524)">
    <path
       id="rect18540"
       style="opacity:0.98;fill:#000000;stroke:none;stroke-width:0.166471;stroke-linecap:round;stroke-linejoin:round;stroke-dasharray:none;stroke-opacity:1;paint-order:markers stroke fill"
       d="M 27.255449 119.61556 L 27.255449 120.83099 L 36.905506 120.83099 C 36.610635 120.41183 36.340249 120.00436 36.094703 119.61556 L 27.255449 119.61556 z M 65.827255 119.61556 C 65.513215 120.00412 65.173571 120.4104 64.803545 120.83099 L 139.65272 120.83099 L 139.65272 119.61556 L 65.827255 119.61556 z " />
    <path
       id="rect16189"
       style="opacity:0.98;stroke:#000000;stroke-width:0.435488;stroke-linecap:round;stroke-linejoin:round;paint-order:markers stroke fill"
       d="m 108.42912,92.598761 -0.1757,4.671032 h 5.04465 l 0.1757,-4.671032 z m 20.98166,0 v 18.790069 c 0,1.32282 0.43534,2.33951 1.30587,3.04891 0.87044,0.7094 2.11662,1.06454 3.73879,1.06454 h 5.04465 v -4.11138 h -3.29386 c -0.69237,0 -1.09802,-0.0121 -1.21646,-0.0491 -0.37592,-0.0975 -0.56379,-0.3397 -0.56379,-0.72709 l 0.0295,-10.50014 h 5.04465 v -4.112926 h -5.04465 v -3.402893 z m -52.700657,6.448702 c -1.582657,0 -2.81919,0.362865 -3.709335,1.088307 -0.890256,0.70965 -1.335319,1.7177 -1.335319,3.02411 v 0.42788 l 2.621029,3.89795 -2.621029,3.86902 v 4.14445 h 5.044654 v -10.88771 c 0,-0.5959 0.108569,-0.98299 0.326078,-1.16065 0.237311,-0.19123 0.722196,-0.28991 1.454175,-0.28991 h 0.741557 v 12.3393 h 5.044653 v -12.3393 c 1.048595,0 1.6816,0.0366 1.899109,0.12299 0.415401,0.16112 0.623218,0.60523 0.623218,1.33067 v 10.88771 h 5.044653 v -12.3424 c 0,-1.30641 -0.445051,-2.31471 -1.335319,-3.02411 -0.87043,-0.725442 -2.106951,-1.088307 -3.709334,-1.088307 z m 38.397657,0 v 16.452747 h 5.04465 v -12.3393 c 1.0486,0 1.6816,0.0366 1.89911,0.12299 0.4154,0.16112 0.62322,0.60523 0.62322,1.33067 v 10.88771 h 5.04465 v -12.3424 c 0,-1.30641 -0.44505,-2.31471 -1.33531,-3.02411 -0.87044,-0.725442 -2.10695,-1.088307 -3.70934,-1.088307 z m -16.290996,0.0021 c -1.602347,0 -2.848522,0.363899 -3.73879,1.089337 -0.870516,0.70966 -1.305347,1.7177 -1.305347,3.02411 v 12.3393 h 5.044137 v -4.11293 h 2.522326 v 4.11293 h 5.04466 v -12.3393 c 0,-1.30641 -0.44517,-2.3147 -1.33532,-3.02411 -0.87043,-0.726672 -2.10696,-1.089337 -3.70934,-1.089337 z m 9.436636,5.16e-4 v 16.452231 h 5.04465 V 99.050046 Z m -8.1902,3.969271 c 0.39578,0 0.70233,0.11218 0.91984,0.33796 0.23762,0.22577 0.35605,0.50718 0.35605,0.84646 v 3.07268 l -2.522326,0.002 v -3.07319 c 0,-0.79083 0.415633,-1.18546 1.246436,-1.18546 z" />
    <g
       id="g841"
       transform="translate(8.2672599,69.844266)">
      <path
         id="path16079-3"
         style="fill:url(#linearGradient2332);fill-opacity:1;stroke:none;stroke-width:4.11595px;stroke-linecap:butt;stroke-linejoin:miter;stroke-opacity:1"
         d="m 50.386842,29.324977 -5.580021,8.275463 5.580021,8.275464 h 8.993766 l 5.580538,-8.275464 -5.580538,-8.275463 z m 4.496883,1.213879 a 6.8247352,7.0615893 0 0 1 6.824907,7.061584 6.8247352,7.0615893 0 0 1 -6.824907,7.061585 6.8247352,7.0615893 0 0 1 -6.824906,-7.061585 6.8247352,7.0615893 0 0 1 6.824906,-7.061584 z" />
      <path
         id="path2340"
         style="opacity:0.98;fill:#000000;fill-opacity:1;stroke-width:2.83923;stroke-linecap:round;stroke-linejoin:round;paint-order:markers stroke fill"
         d="m 54.883725,31.45818 a 6.0493624,6.1422414 0 0 0 -6.049243,6.14226 6.0493624,6.1422414 0 0 0 6.049243,6.142261 6.0493624,6.1422414 0 0 0 6.04976,-6.142261 6.0493624,6.1422414 0 0 0 -6.04976,-6.14226 z m 0,1.905827 a 4.0944157,4.2365135 0 0 1 4.094841,4.236433 4.0944157,4.2365135 0 0 1 -4.094841,4.236434 4.0944157,4.2365135 0 0 1 -4.094323,-4.236434 4.0944157,4.2365135 0 0 1 4.094323,-4.236433 z" />
    </g>
    <g
       id="g1179">
      <path
         id="path16077"
         style="fill:#000000;stroke:none;stroke-width:4.52912px;stroke-linecap:butt;stroke-linejoin:miter;stroke-opacity:1"
         d="M 50.15276 86.376759 C 40.0153 86.302709 34.821913 98.519171 34.821913 98.519171 L 27.236329 98.519171 L 27.236329 116.37079 L 34.821913 116.37079 C 34.821913 116.37079 40.0153 128.58044 50.15276 128.51269 C 60.290294 128.43869 67.681922 116.40128 67.681922 116.40128 L 53.922039 116.55321 L 47.782362 107.44524 L 53.922039 98.33727 L 67.681922 98.488165 C 67.681922 98.488165 60.290294 86.451055 50.15276 86.376759 z M 49.830299 88.180784 C 58.861462 88.247058 63.880087 96.905316 63.880087 96.905316 L 52.452878 96.77199 L 45.005787 107.43594 L 51.677731 118.22494 L 63.935898 118.09214 C 63.935898 118.09214 58.330745 126.56955 49.299582 126.64355 C 40.268493 126.70402 36.372722 114.47479 36.372722 114.47479 L 28.627459 114.47479 L 28.627459 112.21549 L 31.834498 112.21704 C 33.40911 112.21704 33.850396 111.59655 33.850396 110.82643 L 33.850396 103.89972 C 33.850396 103.12899 33.409135 102.50962 31.834498 102.50962 L 28.627459 102.50962 L 28.627459 100.17437 L 36.372722 100.17437 C 36.372722 100.17437 40.799197 88.106734 49.830299 88.180784 z " />
      <path
         id="path1078"
         style="opacity:0.98;fill:#000000;stroke:none;stroke-width:0.353337;stroke-linecap:round;stroke-linejoin:round;paint-order:markers stroke fill"
         d="m 29.156511,112.74476 v 1.20066 h 7.745576 c 0,0 3.707878,12.1051 12.397264,12.16879 8.020812,0.0282 13.5784,-7.49313 13.5784,-7.49313 l -11.728997,0.13328 -7.201162,-11.31817 7.97636,-11.193392 10.897639,0.133289 c 0,0 -4.64539,-7.599895 -12.991496,-7.666169 -8.043327,-0.07405 -12.928008,11.993662 -12.928008,11.993662 h -7.745576 v 1.27681 h 3.207116 c 1.574639,0 2.0158,1.14872 2.0158,1.91945 v 6.92658 c 0,0.77012 -0.441186,1.91957 -2.0158,1.91957 z"
         sodipodi:nodetypes="ccccccccccccccsscc" />
    </g>
  </g>
</svg>
